<svg width="714" height="665" viewBox="0 0 714 665" fill="none" xmlns="http://www.w3.org/2000/svg">
<g clip-path="url(#clip0_962_11105)">
<path d="M251.058 167.689C251.058 167.689 415.095 53.381 490.548 65.3279C566.001 77.2749 577.973 132.175 551.011 168.36C524.049 204.545 526.67 221.336 557.29 225.571C587.912 229.809 635.918 248.601 619.928 311.144C603.938 373.687 523.775 353.953 492.592 385.003C461.41 416.053 492.787 452.971 433.32 445.418C363.384 436.537 417.032 500.312 382.037 530.15C347.038 559.987 315.826 505.728 290.181 551.651C264.537 597.573 230.898 616.506 193.144 596.922C155.387 577.339 134.32 530.721 154.115 480.946C173.911 431.174 171.124 435.542 140.825 420.453C110.524 405.361 43.671 333.444 98.2855 279.56C152.9 225.677 251.058 167.689 251.058 167.689Z" fill="#F9F9F9"/>
</g>
<rect x="336" y="152.113" width="109" height="124" fill="white"/>
<path d="M340.5 581.079H170.162C154.613 581.079 154.613 558.461 170.162 558.46H177.23V298.35H339.8L340.5 581.079ZM471.27 558.46H478.338C493.887 558.461 493.887 581.079 478.338 581.079H349.5L349.695 289.867H286.082V108.921H471.27V558.46ZM385.616 157.555C381.784 154.986 376.282 155.951 373.496 159.68C371.151 162.822 370.937 166.613 372.918 169.96C374.489 172.609 373.033 175.236 369.922 175.254C363.299 175.29 356.681 175.263 350.058 175.263C349.844 175.263 349.63 175.281 349.265 175.294C349.287 177.477 349.323 179.611 349.327 181.744C349.332 186.362 349.318 190.981 349.318 195.599C349.318 197.688 350.28 199.123 352.047 199.31C352.861 199.394 353.841 199.181 354.558 198.772C358.096 196.759 362.364 197.083 365.422 199.719C368.377 202.27 369.335 206.528 367.786 210.24C365.694 215.24 359.342 217.32 354.73 214.502C353.582 213.8 352.425 213.489 351.175 214.156C349.875 214.853 349.332 215.965 349.336 217.436C349.358 223.676 349.349 229.922 349.345 236.162C349.345 236.593 349.319 237.034 349.292 237.66C349.301 237.767 349.292 237.873 349.287 237.98C349.421 237.98 349.554 237.984 349.688 238.002C349.879 237.976 350.071 237.966 350.258 237.98C350.44 237.958 350.609 237.94 350.778 237.94C357.139 237.935 363.504 237.917 369.864 237.948C373.06 237.962 374.507 240.625 372.869 243.385C370.701 247.03 371.396 251.821 374.498 254.639C377.85 257.684 382.603 257.942 386.222 255.275C389.631 252.763 390.806 248.119 389.008 244.265C388.821 243.865 388.616 243.469 388.398 243.087C387.023 240.665 388.443 238.055 391.287 237.989C395.057 237.9 398.832 237.948 402.606 237.948C405.74 237.948 408.873 237.962 412.167 237.971C412.145 235.509 412.109 233.153 412.104 230.802C412.104 226.37 412.131 221.934 412.104 217.502C412.104 216.858 411.98 216.151 411.69 215.591C410.742 213.756 408.753 213.316 406.853 214.427C403.243 216.543 398.871 216.111 395.845 213.342C392.889 210.644 392.084 206.293 393.838 202.564C396.032 197.906 402.183 196.021 406.63 198.674C407.858 199.407 409.06 199.754 410.382 199.008C411.726 198.248 412.122 197.039 412.113 195.554C412.078 189.385 412.087 183.215 412.096 177.05C412.096 176.508 412.211 175.961 412.273 175.419L411.958 175.104C411.486 175.166 411.014 175.281 410.542 175.285V175.281C404.289 175.29 398.04 175.299 391.786 175.281C388.332 175.273 386.894 172.712 388.639 169.742C391.06 165.631 389.742 160.324 385.616 157.555Z" fill="#D9D9D9"/>
<path d="M426.798 537.024C425.112 535.352 423.227 533.303 421.144 531.48C418.074 528.787 415.155 525.717 411.646 523.757C404.657 519.851 397.797 521.167 391.472 525.82C387.58 528.684 384.907 532.515 383.393 537.031C381.92 541.43 383.119 545.638 385.428 549.468C389.437 556.116 395.495 560.577 402.087 564.332C413.318 570.732 425.372 573.562 438.248 571.822C444.416 570.986 450.227 568.861 454.825 564.38C456.401 562.845 457.792 561.084 459.08 559.295C460.841 556.849 460.656 553.971 460.273 551.195C459.999 549.235 459.21 547.358 458.813 545.412C458.614 544.425 458.539 543.281 458.834 542.342C459.485 540.259 458.957 537.559 457.148 536.332C455.942 535.516 455.777 534.749 456.106 533.351C458.834 521.626 462.993 510.443 468.263 499.636C470.97 494.085 468.647 487.014 463.322 484.273C457.367 481.203 450.24 483.032 447.369 488.836C444.368 494.908 441.51 501.103 439.297 507.496C436.583 515.342 434.603 523.442 432.293 531.432C432.184 531.802 432.012 532.207 431.745 532.46C430.19 533.934 428.593 535.373 426.784 537.031L426.798 537.024ZM388.368 531.33C388.505 530.994 388.546 530.761 388.676 530.603C395.296 522.956 405.123 521.304 412.633 527.115C416.525 530.123 419.897 533.831 423.371 537.353C427.812 541.862 432.938 545.096 439.194 546.289C444.272 547.255 449.062 546.453 453.393 543.479C454.071 543.013 454.9 542.355 455.154 543.746C455.668 546.604 456.017 549.489 456.442 552.367C456.627 553.601 456.086 554.327 454.921 554.649C451.741 555.519 448.616 556.725 445.382 557.198C435.281 558.672 425.914 556.821 418.122 549.811C414.23 546.309 410.783 542.328 407.014 538.682C403.238 535.03 399.051 531.967 393.617 531.364C391.952 531.179 390.252 531.336 388.375 531.336L388.368 531.33ZM455.592 557.925C456.188 559.179 455.668 560.172 454.647 560.81C453.105 561.762 451.515 562.694 449.843 563.366C443.278 566.011 436.652 565.284 430.039 563.53C421.411 561.248 414.394 556.335 408.097 550.181C405.088 547.241 402.046 544.281 398.729 541.711C394.878 538.737 390.444 537.442 385.545 538.915C384.414 539.258 384.277 538.566 384.291 537.716C384.325 535.708 386.49 533.31 388.717 532.871C392.014 532.22 395.036 533.159 397.962 534.543C403.478 537.161 407.487 541.588 411.276 546.138C421.082 557.925 433.719 561.673 448.452 559.665C450.837 559.343 453.16 558.521 455.585 557.911L455.592 557.925ZM442.168 544.185C438.564 544.315 434.781 543.212 431.3 541.067C430.361 540.491 429.148 540.046 429.408 538.545C429.662 537.099 430.368 535.818 431.841 535.551C433.588 535.236 435.452 535.044 437.193 535.297C441.914 535.969 446.609 536.873 451.303 537.75C452.296 537.935 453.297 538.271 454.194 538.737C454.667 538.984 455.154 539.628 455.202 540.135C455.236 540.492 454.612 541.067 454.16 541.286C450.542 543.075 446.746 544.192 442.168 544.185ZM405.938 550.983C405.383 551.25 405.198 551.394 404.992 551.421C401.847 551.887 398.578 551.949 395.584 552.888C391.321 554.224 389.293 551.963 387.436 548.886C387.409 548.838 387.367 548.797 387.34 548.749C386.504 547.392 386.785 546.762 388.361 546.618C391.363 546.344 394.419 546.378 397.345 545.775C400.168 545.192 402.032 546.138 403.643 548.221C404.341 549.119 405.095 549.969 405.931 550.969L405.938 550.983ZM392.514 554.738C393.213 554.409 393.357 554.293 393.514 554.279C397.969 553.758 402.423 553.251 406.884 552.751C407.158 552.717 407.535 552.669 407.713 552.813C409.433 554.21 411.119 555.65 413.079 557.294C412.311 557.52 412.058 557.63 411.79 557.671C408.528 558.158 405.157 558.254 402.046 559.213C399.086 560.124 397.139 559.144 395.207 557.287C394.378 556.499 393.549 555.711 392.521 554.738H392.514ZM400.552 560.625C401.642 560.453 402.217 560.344 402.806 560.275C405.637 559.967 408.528 559.946 411.269 559.281C414.031 558.617 416.279 559.055 418.369 560.83C418.684 561.097 418.924 561.461 419.191 561.783C418.842 562.022 418.526 562.386 418.143 562.488C415.292 563.249 412.434 564.01 409.549 564.647C408.823 564.805 407.932 564.695 407.233 564.414C405.602 563.756 404.026 562.954 402.464 562.139C401.902 561.844 401.45 561.344 400.552 560.611V560.625ZM398.263 543.466C398.263 543.692 398.263 543.918 398.263 544.144C397.42 544.315 396.577 544.541 395.721 544.651C393.131 544.987 390.479 545.042 387.957 545.652C386.059 546.111 385.319 545.549 384.955 543.856C384.859 543.418 384.633 543.006 384.503 542.568C384.106 541.238 384.476 540.286 385.928 540.06C390.575 539.34 394.597 540.793 398.256 543.459L398.263 543.466ZM419.787 568.252C422.981 567.313 425.777 566.36 428.641 565.689C430.361 565.284 432.026 565.928 433.863 566.874C429.237 569.506 424.817 570.294 419.787 568.245V568.252ZM425.92 565.003C422.515 565.826 419.41 566.744 416.238 567.251C414.99 567.45 413.599 566.73 412.277 566.429C412.291 566.223 412.297 566.018 412.311 565.805C413.099 565.586 413.887 565.36 414.675 565.147C416.758 564.585 418.869 564.092 420.932 563.448C422.638 562.913 424.289 563.27 425.927 564.997L425.92 565.003ZM442.408 567.717C439.358 569.314 436.378 569.56 433.157 569.882C434.651 567.45 439.023 566.429 442.408 567.717Z" fill="black"/>
<path d="M388.368 531.33C390.246 531.33 391.945 531.172 393.61 531.357C399.051 531.96 403.231 535.023 407.007 538.676C410.776 542.321 414.223 546.303 418.115 549.804C425.9 556.815 435.274 558.665 445.375 557.191C448.609 556.719 451.741 555.513 454.914 554.642C456.079 554.32 456.62 553.594 456.435 552.36C456.01 549.489 455.661 546.597 455.147 543.74C454.9 542.349 454.064 543.007 453.386 543.472C449.055 546.447 444.265 547.248 439.187 546.282C432.931 545.09 427.805 541.855 423.364 537.346C419.89 533.824 416.519 530.117 412.626 527.108C405.116 521.297 395.289 522.956 388.669 530.596C388.532 530.754 388.498 530.987 388.361 531.323L388.368 531.33Z" fill="white"/>
<path d="M455.593 557.925C453.167 558.535 450.844 559.35 448.459 559.679C433.726 561.687 421.083 557.938 411.284 546.152C407.494 541.595 403.485 537.175 397.969 534.557C395.043 533.166 392.014 532.227 388.725 532.885C386.498 533.324 384.332 535.722 384.298 537.73C384.284 538.58 384.415 539.272 385.552 538.929C390.452 537.456 394.892 538.751 398.737 541.725C402.06 544.295 405.096 547.248 408.104 550.195C414.402 556.349 421.419 561.262 430.046 563.544C436.659 565.298 443.292 566.018 449.85 563.379C451.522 562.708 453.112 561.776 454.654 560.823C455.675 560.186 456.196 559.192 455.6 557.938L455.593 557.925Z" fill="white"/>
<path d="M442.168 544.185C446.746 544.185 450.549 543.075 454.16 541.286C454.612 541.06 455.236 540.492 455.202 540.135C455.154 539.628 454.667 538.984 454.194 538.737C453.297 538.271 452.296 537.935 451.303 537.75C446.609 536.88 441.921 535.969 437.193 535.297C435.452 535.051 433.589 535.242 431.841 535.551C430.368 535.811 429.662 537.093 429.408 538.545C429.148 540.046 430.361 540.492 431.3 541.067C434.781 543.212 438.564 544.315 442.168 544.185Z" fill="white"/>
<path d="M405.937 550.983C405.101 549.982 404.341 549.133 403.649 548.235C402.031 546.145 400.174 545.199 397.351 545.789C394.425 546.392 391.362 546.357 388.367 546.632C386.791 546.775 386.51 547.406 387.346 548.763C387.374 548.811 387.415 548.852 387.442 548.9C389.299 551.977 391.328 554.238 395.59 552.902C398.585 551.963 401.853 551.901 404.999 551.435C405.204 551.408 405.389 551.257 405.944 550.997L405.937 550.983Z" fill="white"/>
<path d="M392.514 554.738C393.542 555.711 394.371 556.499 395.201 557.287C397.14 559.144 399.079 560.124 402.04 559.213C405.151 558.254 408.529 558.151 411.784 557.671C412.051 557.63 412.305 557.52 413.072 557.294C411.112 555.65 409.427 554.21 407.707 552.813C407.528 552.669 407.152 552.717 406.877 552.751C402.423 553.251 397.962 553.758 393.508 554.279C393.35 554.3 393.206 554.416 392.508 554.738H392.514Z" fill="white"/>
<path d="M400.552 560.625C401.45 561.358 401.902 561.858 402.464 562.153C404.027 562.968 405.603 563.77 407.234 564.428C407.933 564.709 408.823 564.818 409.55 564.661C412.435 564.023 415.285 563.263 418.143 562.502C418.527 562.399 418.842 562.036 419.191 561.796C418.917 561.474 418.684 561.111 418.369 560.844C416.279 559.069 414.031 558.624 411.27 559.295C408.529 559.96 405.63 559.974 402.807 560.289C402.224 560.35 401.642 560.467 400.552 560.638V560.625Z" fill="white"/>
<path d="M398.264 543.466C394.604 540.8 390.575 539.347 385.936 540.067C384.483 540.293 384.113 541.245 384.51 542.575C384.641 543.013 384.867 543.425 384.963 543.863C385.326 545.556 386.066 546.118 387.964 545.658C390.486 545.049 393.138 544.987 395.728 544.658C396.585 544.548 397.421 544.322 398.271 544.151C398.271 543.925 398.271 543.699 398.271 543.472L398.264 543.466Z" fill="white"/>
<path d="M419.787 568.252C424.817 570.301 429.244 569.512 433.862 566.881C432.026 565.935 430.361 565.291 428.641 565.696C425.776 566.36 422.973 567.313 419.787 568.258V568.252Z" fill="white"/>
<path d="M425.921 565.003C424.283 563.27 422.632 562.913 420.925 563.455C418.863 564.099 416.759 564.592 414.669 565.154C413.881 565.367 413.093 565.593 412.305 565.812C412.291 566.018 412.284 566.223 412.27 566.436C413.593 566.737 414.991 567.457 416.231 567.258C419.404 566.751 422.508 565.833 425.914 565.01L425.921 565.003Z" fill="white"/>
<path d="M442.407 567.717C439.022 566.429 434.65 567.45 433.156 569.883C436.377 569.567 439.358 569.321 442.407 567.717Z" fill="white"/>
<path d="M486.705 459.387L464.977 506.784L443.391 497.191L467.376 447.166L486.705 459.387Z" fill="black"/>
<path d="M539.329 442.205L569.138 485.034L549.608 498.739L519.456 452.827L539.329 442.205Z" fill="black"/>
<path d="M560.821 564.94C560.821 562.021 560.492 559.582 560.883 557.265C562.178 549.604 569.49 545.479 576.939 547.994C579.721 548.933 579.858 549.282 578.384 551.797C578.103 552.277 577.802 552.743 577.665 553.318C579.755 552.037 581.043 550.084 581.681 547.809C582.599 544.52 583.229 541.148 584.017 537.818C585.518 531.452 588.019 525.723 593.584 521.735C599.182 517.712 606.398 517.507 611.627 521.413C612.051 521.728 612.408 522.139 613.141 522.838C611.448 523.139 610.201 523.345 608.968 523.585C602.492 524.846 597.551 528.512 593.433 533.487C588.972 538.88 586.827 545.28 585.539 552.01C584.744 556.149 584.353 560.37 583.524 564.502C582.29 570.614 577.357 572.924 571.95 569.833C569.407 568.38 567.18 566.366 564.871 564.536C564.33 564.104 564.035 563.371 563.631 562.775C563.439 562.994 563.24 563.214 563.048 563.426C566.433 568.209 570.326 572.396 576.651 573.033C580.31 573.403 583.318 571.259 584.607 567.325C585.559 564.426 586.155 561.377 586.614 558.348C587.553 552.119 588.684 545.959 591.48 540.25C594.865 533.336 599.867 528.121 607.549 526.23C609.927 525.647 612.517 525.88 615.012 525.901C615.567 525.901 616.184 526.511 616.629 526.97C616.889 527.237 616.862 527.779 616.965 528.197C616.547 528.286 616.115 528.512 615.724 528.45C609.53 527.505 604.376 529.752 599.957 533.836C594.947 538.462 592.309 544.451 591.089 551.023C590.171 555.943 589.753 560.959 588.972 565.913C588.657 567.921 588.163 569.957 587.402 571.834C585.552 576.425 581.578 578.228 576.712 577.07C571.422 575.809 567.413 572.65 563.864 568.73C563.329 568.141 562.802 567.538 562.253 566.955C562.144 566.839 561.979 566.77 561.445 566.427C563.528 570.279 566.2 573.061 569.099 575.692C573.197 579.413 578.165 580.393 583.469 580.66C590.246 580.996 597.003 581.702 603.787 580.797C611.62 579.756 616.951 575.781 618.664 567.86C620.179 560.877 622.467 554.148 624.77 547.405C626.079 543.567 626.51 539.599 625.154 535.652C624.804 534.645 624.27 533.686 623.708 532.767C622.467 530.739 621.09 528.8 619.898 526.751C616.848 521.508 612.545 518.007 606.549 516.636C605.514 516.396 604.445 515.786 603.657 515.06C601.43 513.004 598.84 512.436 596.051 513.176C594.139 513.683 592.885 513.203 591.5 511.86C582.983 503.616 575.369 494.632 568.894 484.689C565.426 479.372 557.902 477.96 552.523 481.503C547.157 485.039 545.588 492.303 549.048 497.641C556.901 509.77 566.139 520.741 576.795 530.499C577.74 531.363 578.165 532.24 578.206 533.583C578.288 536.214 578.802 538.791 580.666 540.895C581.345 541.655 581.084 545.246 580.283 545.712C579.803 545.993 578.967 545.89 578.371 545.712C573.752 544.335 569.462 544.986 565.467 547.651C560.184 551.173 557.991 557.827 560.156 563.769C560.246 564.015 560.417 564.235 560.814 564.92L560.821 564.94ZM603.904 540.017C608.728 539.969 613.415 540.771 618.068 541.991C623.201 543.341 622.721 542.457 621.179 547.713C620.782 549.077 620.117 549.392 618.794 548.988C617.225 548.508 615.601 547.918 613.991 547.891C608.2 547.802 602.403 547.898 596.612 548.008C594.913 548.042 594.605 547.823 595.221 546.226C595.831 544.636 596.53 543.074 597.257 541.525C597.75 540.47 598.517 539.867 599.819 539.983C601.176 540.106 602.547 540.011 603.91 540.011L603.904 540.017ZM602.081 549.296C602.101 549.125 602.122 548.953 602.142 548.782C606.987 549.378 611.839 549.885 616.663 550.598C619.905 551.078 619.884 551.201 618.856 554.243C618.692 554.73 618.486 555.21 618.39 555.71C618.191 556.772 617.595 557.094 616.554 556.971C614.518 556.724 612.469 556.334 610.441 556.395C605.219 556.553 599.998 556.895 594.783 557.238C593.638 557.313 592.734 557.286 592.96 555.847C593.275 553.88 593.652 551.914 594.193 550.002C594.317 549.556 595.221 549.056 595.77 549.056C597.873 549.035 599.977 549.214 602.081 549.316V549.296ZM592.09 564.2C592.247 562.611 592.425 561.028 592.563 559.438C592.652 558.355 593.035 557.827 594.276 557.882C600.587 558.163 606.912 558.293 613.223 558.615C617.636 558.842 617.609 558.931 616.41 563.234C616.163 564.111 615.786 564.495 614.875 564.406C608.029 563.755 601.354 564.851 594.728 566.414C592.042 567.044 592.035 567.024 592.097 564.2H592.09ZM589.636 574.74C590.342 572.424 590.884 570.457 591.562 568.538C591.713 568.12 592.316 567.62 592.754 567.579C599.998 566.873 607.255 566.229 614.505 565.578C615.567 565.482 615.841 566.099 615.581 566.969C615.224 568.161 614.882 569.395 614.292 570.477C613.97 571.067 613.203 571.683 612.558 571.779C605.918 572.759 599.258 573.643 592.604 574.534C591.679 574.657 590.74 574.664 589.643 574.733L589.636 574.74ZM599.703 539.031C599.607 538.88 599.511 538.729 599.415 538.578C599.792 538.051 600.1 537.461 600.546 537.009C604.048 533.487 608.255 531.376 613.209 530.938C618.822 530.444 622.214 533.343 622.748 538.955C622.933 540.943 622.481 541.244 620.528 540.648C614.258 538.736 607.912 537.612 601.341 538.921C600.806 539.024 600.244 539.003 599.703 539.037V539.031ZM582.016 537.222C581.845 537.18 581.681 537.146 581.509 537.105C581.406 536.79 581.263 536.481 581.208 536.159C581.105 535.543 581.002 534.919 581.002 534.295C580.961 527.614 583.99 522.482 589.122 518.48C591.912 516.307 595.098 515.156 598.689 515.54C599.34 515.608 599.963 515.978 600.601 516.211C600.546 516.39 600.498 516.568 600.443 516.746C600.018 516.842 599.586 516.924 599.168 517.034C598.73 517.143 598.284 517.253 597.86 517.404C589.493 520.439 585.004 526.806 582.729 535.07C582.53 535.796 582.256 536.502 582.016 537.222ZM611.702 573.294C611.935 573.575 612.161 573.856 612.394 574.137C611.839 574.411 611.284 574.692 610.722 574.959C608.981 575.768 607.303 576.823 605.473 577.33C600.032 578.844 594.44 578.783 588.855 578.44C588.211 578.399 587.581 578.063 586.943 577.864C587.588 577.207 588.177 576.473 588.903 575.918C589.198 575.692 589.787 575.857 590.239 575.816C594.378 575.439 598.517 575.123 602.643 574.651C605.678 574.308 608.687 573.753 611.709 573.301L611.702 573.294Z" fill="black"/>
<path d="M603.904 540.017C602.54 540.017 601.162 540.113 599.813 539.99C598.504 539.874 597.743 540.477 597.25 541.532C596.53 543.081 595.831 544.636 595.214 546.233C594.605 547.829 594.913 548.049 596.605 548.014C602.396 547.905 608.193 547.809 613.984 547.898C615.594 547.925 617.218 548.515 618.787 548.994C620.11 549.399 620.775 549.077 621.172 547.72C622.714 542.464 623.194 543.348 618.061 541.998C613.408 540.778 608.721 539.976 603.897 540.024L603.904 540.017Z" fill="white"/>
<path d="M602.081 549.296C599.978 549.193 597.874 549.022 595.77 549.035C595.222 549.035 594.317 549.536 594.194 549.981C593.653 551.893 593.276 553.86 592.96 555.826C592.727 557.265 593.639 557.293 594.783 557.217C599.998 556.875 605.213 556.532 610.441 556.375C612.47 556.313 614.526 556.704 616.554 556.95C617.589 557.074 618.192 556.758 618.391 555.689C618.486 555.189 618.692 554.709 618.857 554.223C619.891 551.18 619.912 551.057 616.664 550.577C611.839 549.871 606.981 549.358 602.143 548.761C602.122 548.933 602.102 549.104 602.081 549.275V549.296Z" fill="white"/>
<path d="M592.089 564.2C592.028 567.024 592.035 567.044 594.721 566.414C601.347 564.851 608.022 563.762 614.868 564.406C615.779 564.495 616.156 564.111 616.403 563.234C617.602 558.931 617.636 558.835 613.216 558.615C606.905 558.293 600.587 558.163 594.269 557.882C593.028 557.827 592.645 558.355 592.555 559.438C592.425 561.028 592.24 562.617 592.083 564.2H592.089Z" fill="white"/>
<path d="M589.636 574.74C590.732 574.671 591.671 574.664 592.596 574.541C599.25 573.65 605.911 572.766 612.551 571.786C613.195 571.69 613.97 571.074 614.285 570.484C614.874 569.402 615.217 568.168 615.573 566.976C615.834 566.105 615.56 565.489 614.497 565.585C607.247 566.236 599.997 566.88 592.747 567.586C592.309 567.627 591.699 568.127 591.555 568.545C590.876 570.464 590.335 572.424 589.629 574.747L589.636 574.74Z" fill="white"/>
<path d="M599.703 539.031C600.251 538.996 600.813 539.024 601.34 538.914C607.905 537.605 614.258 538.729 620.528 540.641C622.481 541.237 622.94 540.936 622.748 538.948C622.22 533.336 618.821 530.437 613.209 530.931C608.248 531.369 604.047 533.487 600.546 537.002C600.093 537.454 599.785 538.044 599.415 538.571C599.511 538.722 599.607 538.873 599.703 539.024V539.031Z" fill="white"/>
<path d="M582.016 537.222C582.256 536.509 582.53 535.796 582.729 535.07C585.004 526.806 589.486 520.433 597.86 517.404C598.284 517.253 598.73 517.143 599.168 517.034C599.593 516.924 600.018 516.842 600.443 516.746C600.498 516.568 600.546 516.39 600.601 516.211C599.963 515.978 599.34 515.615 598.689 515.54C595.098 515.149 591.911 516.307 589.122 518.48C583.99 522.475 580.961 527.614 581.002 534.295C581.002 534.919 581.112 535.543 581.208 536.159C581.262 536.481 581.406 536.79 581.509 537.105C581.68 537.146 581.845 537.18 582.016 537.222Z" fill="white"/>
<path d="M611.701 573.294C608.679 573.753 605.671 574.301 602.635 574.644C598.51 575.117 594.364 575.432 590.232 575.809C589.78 575.85 589.191 575.685 588.896 575.911C588.17 576.467 587.58 577.2 586.936 577.858C587.573 578.056 588.197 578.399 588.848 578.433C594.433 578.776 600.025 578.838 605.466 577.323C607.295 576.816 608.974 575.761 610.715 574.952C611.277 574.692 611.832 574.404 612.387 574.13C612.154 573.849 611.928 573.568 611.695 573.287L611.701 573.294Z" fill="white"/>
<path d="M387.075 281.71C385.879 284.955 384.753 288.232 383.44 291.429C383.024 292.443 383.041 293.002 383.854 293.779C387.597 297.326 388.218 301.574 385.601 305.981C384.803 307.326 384.913 308.443 385.499 309.821C387.527 314.586 389.641 319.337 391.305 324.234C393.098 329.487 390.715 335.095 386.027 337.782C379.676 341.418 371.921 338.664 369.156 331.808C367.88 328.637 366.573 325.483 365.266 322.328C364.801 321.214 364.025 320.707 362.733 320.745C358.086 320.895 354.701 318.924 353.187 314.532C352.194 311.66 350.489 310.029 347.946 308.549C341.198 304.61 336.636 298.763 335.08 291.048C333.453 282.939 334.915 275.507 341.35 269.648C342.025 269.032 342.669 268.391 343.343 267.775C345.21 266.069 346.67 264.141 347.679 261.755C350.281 255.593 359.181 252.744 365.031 256.037C365.184 256.118 365.346 256.187 365.474 256.293C367.569 257.996 369.544 259.346 372.616 258.032C373.733 257.554 375.888 258.573 377.129 259.492C381.426 262.681 384.656 266.753 386.267 271.968C387.214 275.033 387.378 278.001 387.062 281.708L387.075 281.71ZM345.843 268.032C345.643 267.901 345.448 267.778 345.248 267.647C344.085 268.93 342.935 270.222 341.761 271.49C337.339 276.293 335.766 281.962 336.611 288.375C337.829 297.673 343.836 303.563 351.013 308.624C351.901 309.247 352.181 308.704 352.591 307.884C353.576 305.924 354.477 303.811 355.922 302.214C359.734 298.016 364.622 295.258 369.782 293.026C373.083 291.598 376.499 290.794 380.067 292.178C381.13 292.587 381.443 291.931 381.692 291.035C382.349 288.679 382.935 286.29 383.801 284.012C386.882 275.922 384.407 269.164 378.891 263.162C377.054 261.168 374.731 259.989 371.881 260.194C370.6 260.289 369.922 260.598 370.289 262.204C370.961 265.167 370.013 267.071 367.454 268.472C366.327 269.094 366.481 269.579 367.475 270.109C368.826 270.831 370.178 271.547 371.88 272.454C366.816 272.562 361.623 269.29 360.117 265.302C359.915 264.768 359.944 264.147 359.861 263.57C361.542 264.849 362.806 266.203 364.077 267.566C365.071 268.631 366.029 268.473 367.044 267.568C368.56 266.213 368.948 263.596 367.878 261.586C366.182 258.387 361.997 256.301 358.339 256.848C353.348 257.587 350.086 260.349 348.436 265.122C347.742 267.124 346.806 269.037 345.981 270.989C345.775 270.933 345.57 270.871 345.371 270.816C345.448 270.363 345.523 269.917 345.6 269.465C345.682 268.985 345.763 268.505 345.844 268.026L345.843 268.032ZM380.166 293.439C378.86 293.433 377.478 293.143 376.261 293.472C373.149 294.32 369.972 295.144 367.088 296.538C363.25 298.39 359.425 300.493 356.776 303.985C352.552 309.545 352.802 310.818 356.531 315.509C357.545 316.786 359.326 317.512 360.856 318.286C361.387 318.557 362.239 318.208 362.938 318.145C362.746 317.473 362.696 316.7 362.326 316.137C360.276 312.975 361.3 311.244 363.395 309.215C367.129 305.602 371.6 303.294 376.624 302.068C379.764 301.301 380.967 301.832 382.704 304.58C383.181 305.335 383.613 305.575 384.252 304.759C387.283 300.859 384.903 294.36 380.164 293.452L380.166 293.439Z" fill="black"/>
<path d="M345.844 268.033C345.762 268.513 345.681 268.992 345.6 269.472C345.523 269.925 345.447 270.37 345.371 270.823C345.577 270.879 345.781 270.941 345.981 270.996C346.805 269.044 347.741 267.131 348.435 265.129C350.087 260.349 353.355 257.595 358.338 256.855C361.997 256.308 366.181 258.4 367.877 261.593C368.941 263.602 368.551 266.225 367.044 267.575C366.027 268.487 365.062 268.643 364.076 267.573C362.813 266.212 361.548 264.857 359.861 263.577C359.942 264.161 359.915 264.775 360.116 265.31C361.622 269.297 366.822 272.57 371.88 272.461C370.185 271.555 368.833 270.84 367.475 270.116C366.48 269.586 366.32 269.1 367.453 268.479C370.012 267.078 370.961 265.174 370.289 262.211C369.921 260.605 370.599 260.296 371.881 260.201C374.731 259.989 377.054 261.169 378.891 263.169C384.412 269.179 386.888 275.931 383.8 284.019C382.934 286.297 382.348 288.686 381.692 291.042C381.444 291.932 381.13 292.594 380.066 292.185C376.498 290.808 373.082 291.605 369.782 293.033C364.621 295.265 359.733 298.023 355.922 302.221C354.477 303.811 353.576 305.931 352.59 307.891C352.181 308.704 351.9 309.254 351.012 308.631C343.835 303.57 337.828 297.68 336.611 288.382C335.766 281.969 337.332 276.299 341.76 271.497C342.936 270.223 344.085 268.937 345.248 267.654C345.448 267.785 345.642 267.908 345.843 268.04L345.844 268.033Z" fill="white"/>
<path d="M380.165 293.439C384.912 294.341 387.291 300.847 384.253 304.745C383.621 305.563 383.183 305.321 382.706 304.566C380.975 301.819 379.773 301.289 376.626 302.055C371.602 303.281 367.124 305.587 363.397 309.202C361.302 311.231 360.285 312.963 362.328 316.124C362.691 316.686 362.741 317.459 362.939 318.132C362.233 318.2 361.389 318.544 360.858 318.273C359.328 317.499 357.547 316.773 356.533 315.496C352.804 310.805 352.553 309.539 356.777 303.972C359.427 300.48 363.253 298.37 367.09 296.525C369.973 295.137 373.151 294.307 376.263 293.458C377.473 293.128 378.862 293.419 380.168 293.425L380.165 293.439Z" fill="white"/>
<path d="M409.001 345.613C404.615 343.969 392.589 327.334 391.218 323.451L368.604 330.646C371.064 337.492 399.504 371.187 404.001 368.613L407.001 362.113C410.313 358.116 413.387 347.258 409.001 345.613Z" fill="black"/>
<path d="M440.784 257.692C443.797 255.997 446.855 254.365 449.803 252.561C450.738 251.991 451.293 251.918 452.189 252.598C456.285 255.731 460.577 255.671 464.514 252.388C465.716 251.387 466.835 251.318 468.289 251.678C473.315 252.925 478.341 254.258 483.441 255.125C488.911 256.062 494.07 252.82 495.98 247.765C498.562 240.918 494.614 233.697 487.406 232.055C484.073 231.297 480.751 230.507 477.429 229.717C476.255 229.435 475.631 228.75 475.464 227.468C474.875 222.855 472.393 219.826 467.816 219.028C464.823 218.502 462.943 217.078 461.077 214.802C456.119 208.764 449.622 205.187 441.758 204.875C433.494 204.554 426.387 207.176 421.623 214.459C421.122 215.222 420.591 215.96 420.09 216.723C418.702 218.837 417.029 220.584 414.833 221.959C409.162 225.505 407.761 234.744 411.939 239.998C412.044 240.136 412.138 240.285 412.262 240.395C414.276 242.194 415.922 243.929 415.112 247.171C414.817 248.349 416.165 250.316 417.27 251.396C421.1 255.133 425.632 257.676 431.036 258.439C434.213 258.888 437.17 258.579 440.779 257.679L440.784 257.692ZM420.74 219.151C420.579 218.974 420.426 218.802 420.265 218.625C421.348 217.273 422.441 215.932 423.506 214.572C427.548 209.445 432.896 206.993 439.361 206.81C448.734 206.538 455.503 211.534 461.638 217.818C462.394 218.596 461.902 218.958 461.157 219.493C459.379 220.777 457.435 222.001 456.088 223.682C452.547 228.111 450.599 233.375 449.214 238.824C448.327 242.309 448.076 245.81 450.007 249.113C450.58 250.098 449.982 250.51 449.137 250.899C446.915 251.921 444.649 252.878 442.537 254.094C435.039 258.42 427.973 257.047 421.172 252.553C418.912 251.055 417.38 248.949 417.13 246.103C417.021 244.822 417.219 244.104 418.862 244.212C421.895 244.406 423.624 243.168 424.601 240.419C425.037 239.207 425.54 239.282 426.221 240.18C427.149 241.4 428.07 242.621 429.235 244.158C428.538 239.14 424.485 234.532 420.308 233.677C419.749 233.563 419.14 233.69 418.557 233.699C420.087 235.156 421.624 236.19 423.171 237.228C424.38 238.041 424.377 239.011 423.644 240.157C422.546 241.869 420.024 242.667 417.87 241.929C414.442 240.763 411.719 236.961 411.679 233.262C411.617 228.218 413.827 224.559 418.278 222.172C420.145 221.17 421.884 219.942 423.681 218.819C423.594 218.624 423.499 218.432 423.414 218.244C422.979 218.391 422.551 218.537 422.116 218.684C421.655 218.841 421.194 218.997 420.734 219.153L420.74 219.151ZM451.268 249.01C451.055 247.722 450.549 246.403 450.681 245.15C451.026 241.943 451.335 238.675 452.254 235.606C453.474 231.523 454.944 227.413 457.972 224.244C462.792 219.192 464.088 219.237 469.311 222.175C470.733 222.973 471.732 224.617 472.739 226.005C473.09 226.486 472.881 227.382 472.93 228.082C472.236 227.999 471.465 228.073 470.85 227.796C467.403 226.274 465.856 227.559 464.185 229.95C461.209 234.209 459.641 238.99 459.227 244.145C458.967 247.367 459.682 248.47 462.671 249.75C463.492 250.101 463.797 250.489 463.093 251.249C459.723 254.861 452.929 253.541 451.281 249.006L451.268 249.01Z" fill="black"/>
<path d="M420.741 219.151C421.201 218.995 421.662 218.838 422.123 218.682C422.557 218.534 422.986 218.389 423.42 218.241C423.508 218.436 423.602 218.628 423.688 218.816C421.891 219.94 420.151 221.167 418.284 222.17C413.827 224.559 411.626 228.222 411.686 233.26C411.726 236.959 414.455 240.758 417.877 241.927C420.028 242.658 422.557 241.858 423.651 240.155C424.39 239.007 424.391 238.03 423.178 237.226C421.633 236.194 420.096 235.16 418.564 233.697C419.154 233.685 419.755 233.561 420.315 233.675C424.491 234.529 428.547 239.145 429.242 244.155C428.079 242.625 427.157 241.404 426.228 240.178C425.547 239.28 425.041 239.198 424.608 240.417C423.631 243.165 421.902 244.403 418.869 244.21C417.226 244.102 417.028 244.82 417.137 246.1C417.38 248.949 418.913 251.055 421.179 252.551C427.989 257.049 435.048 258.424 442.543 254.092C444.656 252.876 446.922 251.918 449.144 250.896C449.983 250.51 450.587 250.095 450.014 249.11C448.089 245.805 448.334 242.306 449.221 238.821C450.606 233.372 452.554 228.109 456.094 223.68C457.435 222.001 459.385 220.775 461.164 219.491C461.902 218.958 462.401 218.594 461.644 217.816C455.51 211.532 448.741 206.535 439.368 206.808C432.903 206.99 427.553 209.436 423.513 214.57C422.441 215.932 421.354 217.271 420.272 218.623C420.433 218.799 420.586 218.972 420.747 219.149L420.741 219.151Z" fill="white"/>
<path d="M451.269 249.01C452.912 253.554 459.713 254.871 463.081 251.253C463.787 250.5 463.479 250.105 462.658 249.754C459.672 248.481 458.957 247.378 459.215 244.149C459.629 238.994 461.195 234.207 464.173 229.954C465.844 227.564 467.393 226.285 470.838 227.801C471.451 228.07 472.222 227.997 472.918 228.086C472.873 227.378 473.078 226.49 472.727 226.009C471.72 224.621 470.721 222.977 469.299 222.179C464.076 219.241 462.786 219.194 457.959 224.248C454.932 227.417 453.455 231.53 452.242 235.61C451.329 238.677 451.013 241.947 450.669 245.154C450.535 246.401 451.043 247.726 451.256 249.015L451.269 249.01Z" fill="white"/>
<path d="M572 351.113C598.04 302.597 527.968 249.248 487.423 232.116L476 253.613C490.551 256.607 530.837 293.242 558 322.613L572 351.113Z" fill="black"/>
<circle cx="489.304" cy="372.308" r="86.0005" fill="#F2AB3C"/>
<path d="M543.638 346.761L533.02 365.351L517.829 339.515L539.594 339.703C543.346 339.723 545.507 343.517 543.638 346.761Z" fill="white"/>
<path d="M506.295 412.023L494.583 432.527C492.742 435.778 488.05 435.854 486.112 432.652L473.979 412.252L506.295 412.023Z" fill="white"/>
<path d="M462.569 339.703L446.594 366.351L435.458 347.395C433.617 344.138 436.024 339.876 439.784 339.882L462.569 339.703Z" fill="white"/>
<path d="M483.149 318.47L490.779 331.114L498.171 318.391L494.368 311.692C492.809 308.944 488.841 308.903 487.226 311.619L483.149 318.47Z" fill="white"/>
<path d="M505.012 329.799C503.824 327.715 500.811 327.701 499.603 329.771L495.577 336.67C495.018 337.629 495.016 338.809 495.571 339.77L522.448 386.599C523.645 388.667 522.14 391.247 519.741 391.243H518.882C517.767 391.239 516.739 390.648 516.184 389.687L481.649 329.989C480.456 327.928 477.471 327.915 476.259 329.965L436.028 398.051C434.098 401.319 436.463 405.437 440.275 405.444L496.02 405.534C498.402 405.538 499.907 402.992 498.747 400.925L481.418 370.042C480.253 367.968 477.27 367.912 476.03 369.943L470.09 379.67C468.829 381.733 470.323 384.374 472.75 384.377C473.865 384.377 474.893 384.972 475.448 385.931L475.792 386.524C476.989 388.593 475.484 391.172 473.084 391.168L461.303 391.15C458.903 391.146 457.408 388.561 458.61 386.496L476.193 356.336C477.403 354.261 480.426 354.281 481.607 356.372L508.535 403.978C509.086 404.952 510.122 405.556 511.248 405.558L539.517 405.603C543.303 405.609 545.685 401.552 543.82 398.277L505.01 329.799H505.012Z" fill="white"/>
<path d="M390.386 207.619C392.862 204.296 397.751 203.437 401.157 205.726C404.824 208.193 405.995 212.923 403.844 216.586C402.293 219.232 403.571 221.514 406.641 221.522C412.199 221.538 417.753 221.53 423.311 221.522V221.526C423.73 221.522 424.149 221.419 424.568 221.364L424.85 221.645C424.794 222.128 424.691 222.615 424.691 223.098C424.685 227.878 424.679 232.661 424.698 237.445C424.392 240.017 422.737 242.412 419.538 242.202C415.614 240.089 410.366 241.785 408.464 245.833C406.905 249.156 407.621 253.035 410.248 255.439C412.938 257.906 416.823 258.291 420.031 256.406C421.72 255.415 423.488 255.807 424.331 257.443C424.588 257.942 424.699 258.572 424.699 259.146C424.723 263.095 424.699 267.048 424.699 270.997C424.703 273.093 424.735 275.192 424.755 277.386C421.828 277.378 419.043 277.367 416.258 277.367C412.903 277.367 409.548 277.322 406.197 277.402C403.67 277.461 402.408 279.786 403.63 281.945C403.824 282.285 404.006 282.638 404.172 282.994C405.77 286.429 404.726 290.568 401.695 292.806C398.479 295.182 394.254 294.953 391.275 292.24C388.518 289.728 387.902 285.458 389.828 282.21C391.284 279.751 389.998 277.378 387.157 277.367C386.898 277.365 386.638 277.365 386.379 277.364C385.491 270.206 381.849 260.603 373.403 258.009C372.594 258.515 370.69 259.253 368.932 258.652C369.028 257.555 369.523 256.714 370.547 256.163C371.658 255.569 372.687 255.847 373.707 256.473C377.805 258.984 383.451 257.13 385.311 252.674C386.687 249.367 385.836 245.573 383.21 243.299C380.492 240.95 376.698 240.661 373.553 242.455C372.916 242.82 372.046 243.009 371.322 242.934C369.752 242.768 368.898 241.489 368.897 239.627C368.897 235.512 368.909 231.396 368.905 227.281C368.901 225.38 368.869 223.478 368.85 221.534C369.174 221.522 369.364 221.506 369.554 221.506C375.44 221.506 381.323 221.53 387.209 221.498C389.974 221.483 391.268 219.141 389.871 216.781C388.111 213.798 388.301 210.42 390.386 207.619Z" fill="#2FA62B"/>
<path d="M444.96 431.825C445.399 431.656 445.794 431.352 446.064 430.92C446.74 429.858 446.422 428.453 445.36 427.777C443.039 426.309 440.823 424.716 438.765 423.056C437.788 422.263 436.357 422.415 435.564 423.392C434.771 424.369 434.926 425.806 435.901 426.593C438.093 428.362 440.455 430.058 442.92 431.624C443.554 432.022 444.308 432.076 444.96 431.825Z" fill="#FCF69A"/>
<path d="M432.526 421.849C432.805 421.741 433.075 421.569 433.302 421.344C434.201 420.464 434.212 419.024 433.332 418.125C415.583 400.056 416.639 378.656 416.654 378.437C416.73 377.185 415.772 376.103 414.521 376.026C413.267 375.943 412.191 376.898 412.107 378.152C412.047 379.107 410.852 401.737 430.082 421.314C430.735 421.979 431.705 422.157 432.523 421.842L432.526 421.849Z" fill="#FCF69A"/>
<path d="M340 581.271H169.662C154.113 581.271 154.113 558.653 169.662 558.652H176.73V298.542H339.3L340 581.271Z" fill="#FFE4B9"/>
<defs>
<clipPath id="clip0_962_11105">
<rect width="588.796" height="402.849" fill="white" transform="translate(713.417 333.285) rotate(145.796)"/>
</clipPath>
</defs>
</svg>
