<svg width="600" height="621" viewBox="0 0 600 621" fill="none" xmlns="http://www.w3.org/2000/svg">
<g clip-path="url(#clip0_1356_6016)">
<path d="M417.728 438.17C417.728 438.17 300.578 563.364 235.158 566.831C169.738 570.298 149.884 526.392 166.029 491.223C182.175 456.054 176.975 442.44 150.536 444.361C124.096 446.28 80.4727 439.099 82.7042 383.785C84.9357 328.47 155.699 330.693 176.302 299.076C196.905 267.46 163.99 242.105 215.216 237.81C275.461 232.758 219.066 188.857 243.083 157.576C267.105 126.295 302.982 166.224 316.282 123.124C329.582 80.0244 354.412 58.1315 389.578 67.809C424.745 77.4849 450.748 112.819 443.043 158.104C435.336 203.388 436.892 199.227 465.002 206.466C493.114 213.708 562.041 262.077 525.865 317.033C489.69 371.989 417.728 438.17 417.728 438.17Z" fill="#FFE4B9"/>
</g>
<g clip-path="url(#clip1_1356_6016)">
<path d="M189.809 480.777C185.955 480.649 182.101 480.521 178.247 480.409C178.167 479.754 177.879 479.562 177.32 480.01C175.433 478.603 174.969 476.701 174.969 474.416C174.969 461.422 174.889 448.412 174.809 435.418C174.809 433.835 174.601 432.253 174.489 430.687C175.401 429.824 175.033 428.705 175.033 427.698C175.049 416.718 175.033 405.753 174.985 394.773C174.985 393.958 175.529 392.903 174.425 392.296C174.425 377.064 174.425 361.817 174.409 346.585C174.409 346.185 174.409 345.786 174.409 345.386C174.505 335.157 173.738 333.559 185.268 333.207C186.035 333.191 186.803 332.856 187.57 332.68C188.114 333.415 188.546 333.319 188.882 332.488C201.051 331.209 213.205 329.883 225.391 328.668C231.403 328.061 231.659 328.268 233.274 333.99C233.93 336.292 235.513 335.828 237.08 335.605C253.36 333.143 267.497 326.319 279.139 314.603C291.58 302.073 298.185 286.313 303.238 269.835C305.605 262.099 307.268 254.14 309.107 246.26C312.353 232.355 323.355 231.94 332.886 236.671C342.178 241.29 348.91 248.386 352.62 258.184C352.988 259.175 353.5 260.102 353.947 261.045C354.443 265.472 355.227 269.915 355.371 274.358C355.818 289.206 351.805 303.175 346.639 316.889C344.294 323.133 346.565 325.914 353.452 325.232C364.854 325.312 376.256 325.392 387.658 325.471C395.046 327.278 401.555 330.65 406.768 336.324C407.344 337.107 407.935 337.89 408.511 338.657C408.415 339.808 408.687 340.767 409.934 341.199C410.254 341.966 410.558 342.717 410.878 343.468C414.156 353.298 413.261 362.68 407.743 371.534C407.152 372.493 406.88 373.548 407.344 374.571C408.863 377.895 410.494 381.156 412.077 384.448C412.205 385.04 412.333 385.631 412.461 386.206C413.037 395.333 410.894 403.532 404.481 410.372C403.138 411.811 404.177 413.313 404.929 414.768C411.549 427.57 409.471 439.749 398.852 449.403C396.837 451.241 396.181 452.631 397.285 455.476C402.85 469.733 395.51 484.421 380.893 489.136C378.047 490.047 375.152 490.111 372.258 490.527C349.342 493.771 326.426 493.755 303.494 490.511C301.063 490.175 298.664 489.088 296.122 489.823C295.498 489.695 294.89 489.552 294.267 489.424C294.139 488.625 293.723 488.593 293.131 488.992C281.649 486.243 270.631 482.343 260.332 476.494C258.877 475.663 257.374 474.815 255.631 474.752C256.159 473.409 254.959 473.249 254.256 472.786C249.25 469.525 243.605 470.132 238.04 470.005C234.778 469.925 233.163 470.724 233.21 474.416C233.258 479.163 231.691 480.393 226.83 480.457C225.231 480.473 223.647 480.425 222.048 480.457C211.318 480.697 200.556 479.962 189.825 480.809L189.809 480.777ZM383.548 334.758C371.17 334.79 358.793 334.166 346.415 335.061C343.633 333.831 340.69 334.598 337.828 334.486C332.503 334.278 330.552 331.353 332.695 326.606C334.214 323.218 335.893 319.877 337.236 316.425C342.801 302.105 347.311 287.528 346.271 271.881C345.824 265.136 344.145 258.663 339.667 253.453C336.581 249.857 333.622 245.733 328.249 245.094C322.332 241.178 319.182 242.408 317.598 249.473C314.128 265.024 310.21 280.384 303.414 294.928C290.493 322.595 268.84 338.801 239.239 344.955C236.809 345.21 233.37 343.356 233.386 348.311C233.482 384.384 233.53 420.474 233.418 456.547C233.418 460.191 234.378 461.358 238.104 461.15C244.597 460.782 251.281 460.399 257.102 464.155C274.149 475.167 292.987 480.649 313.025 482.615C334.07 484.677 355.051 484.229 375.952 481.065C382.908 480.01 387.706 476.334 389.385 469.333C390.632 464.091 389.737 459.088 387.05 454.341C384.236 449.355 384.715 448.012 389.593 445.103C400.323 438.71 402.834 426.18 395.382 416.286C391.128 410.644 391.128 410.149 396.261 405.546C402.61 399.872 405.249 393.175 402.29 384.816C401.299 382.035 399.796 379.542 398.116 377.128C396.213 374.379 396.165 371.774 398.42 369.137C400.771 366.372 402.258 363.111 403.25 359.611C405.633 351.172 401.922 341.758 394.726 338.114C392.279 335.844 389.321 334.885 386.043 334.789C385.227 333.846 384.412 333.831 383.58 334.758H383.548ZM184.292 470.244L184.516 470.564L184.916 470.532C185.299 472.929 187.187 471.827 188.274 471.699C189.697 471.523 191.088 471.267 192.56 471.267C201.867 471.347 211.174 471.235 220.465 471.395C223.392 471.443 224.383 470.484 224.399 467.495C224.511 425.38 223.919 383.266 224.703 341.167C224.735 339.329 224.319 337.858 222.128 338.066C217.811 338.482 213.381 338.194 209.223 339.824C208.439 339.904 207.64 339.984 206.856 340.064C202.794 339.68 198.844 340.224 194.974 341.438L190.161 341.854C187.922 341.71 185.523 340.943 183.892 343.356C183.237 345.546 183.476 347.752 183.764 349.973C183.157 350.964 183.125 351.955 183.684 352.978C183.684 357.565 183.7 362.168 183.716 366.755C183.604 367.395 183.396 368.034 183.396 368.673C183.428 401.582 183.476 434.507 183.54 467.415C183.54 468.374 183.029 469.573 184.276 470.26L184.292 470.244Z" fill="#110D06"/>
<path d="M296.123 489.791C298.666 489.056 301.08 490.143 303.495 490.479C326.427 493.723 349.327 493.739 372.259 490.495C375.138 490.079 378.032 490.031 380.895 489.104C395.511 484.389 402.851 469.701 397.286 455.444C396.183 452.599 396.822 451.209 398.853 449.371C409.472 439.717 411.551 427.538 404.93 414.736C404.179 413.281 403.139 411.779 404.482 410.34C410.895 403.5 413.038 395.301 412.462 386.174C420.746 394.949 419.483 407 411.103 415.327C407.297 419.099 408.688 421.912 410.655 425.188C413.262 429.52 414.381 434.059 414.03 439.158C413.438 447.82 408.336 453.414 401.7 457.921C400.149 458.976 400.037 459.616 400.66 461.006C401.14 462.093 401.476 463.26 402.036 464.315C409.472 478.332 399.509 493.228 385.58 494.698C372.659 496.073 359.706 497.223 346.673 497.271C336.006 497.303 325.564 495.401 314.993 494.49C308.996 493.979 303.239 492.636 297.53 490.894C296.891 490.702 296.219 490.622 296.123 489.775V489.791Z" fill="#F2AB3C"/>
<path d="M289.166 153.352C289.166 146.303 289.166 139.255 289.166 132.223C289.166 128.435 290.717 126.836 294.38 126.82C297.866 126.82 298.969 128.962 298.969 132.015C298.985 146.495 299.017 160.992 298.969 175.472C298.953 179.404 297.354 180.826 293.596 180.683C290.094 180.555 289.166 178.221 289.15 175.28C289.102 167.976 289.15 160.656 289.15 153.352H289.182H289.166Z" fill="#110D06"/>
<path d="M455.271 194.715C455.319 196.745 454.184 197.96 453.08 199.079C443.533 208.684 433.922 218.242 424.327 227.8C423.767 228.359 423.208 228.935 422.568 229.414C420.329 231.108 418.01 231.076 416.091 229.063C414.3 227.177 414.316 224.843 416.043 222.925C418.794 219.857 421.752 216.98 424.647 214.055C431.859 206.783 439.071 199.526 446.348 192.302C447.995 190.672 449.866 189.409 452.408 190.608C454.279 191.487 455.351 192.829 455.271 194.715Z" fill="#110D06"/>
<path d="M138.924 191.056C140.731 190.912 142.042 191.839 143.177 192.989C153.012 202.851 162.783 212.76 172.634 222.59C175.049 225.003 176.088 227.449 173.402 230.118C170.811 232.691 168.236 231.428 166.109 229.319C156.147 219.425 146.248 209.468 136.349 199.51C134.734 197.896 133.982 196.106 134.99 193.773C135.789 191.951 137.037 191.072 138.924 191.056Z" fill="#110D06"/>
<path d="M353.454 325.232C346.567 325.924 344.296 323.143 346.642 316.888C351.807 303.175 355.821 289.19 355.373 274.358C355.245 269.915 354.446 265.472 353.95 261.044C358.46 266.351 360.235 272.76 360.794 279.441C361.818 291.955 359.227 303.974 355.389 315.818C354.398 318.854 352.879 321.843 353.47 325.232H353.454Z" fill="#F2AB3C"/>
<path d="M189.811 480.777C200.541 479.93 211.288 480.665 222.034 480.426C223.633 480.394 225.217 480.426 226.816 480.426C231.677 480.362 233.244 479.131 233.196 474.384C233.164 470.692 234.764 469.909 238.026 469.973C243.591 470.101 249.236 469.493 254.241 472.754C254.945 473.217 256.144 473.361 255.617 474.72C251.363 474.768 247.109 474.64 242.887 474.911C240.712 475.055 240.073 476.845 239.865 478.939C239.321 484.341 238.474 485.109 233.228 485.141C220.867 485.188 208.505 485.268 196.144 485.109C193.393 485.077 189.491 485.764 189.795 480.809L189.811 480.777Z" fill="#F2AB3C"/>
<path d="M347.297 202.627C347.505 201.013 348.832 199.127 349.824 197.113C352.398 191.903 355.133 186.772 357.739 181.578C359.291 178.493 361.322 178.285 364.216 179.899C366.887 181.402 367.91 183.032 366.391 185.957C362.921 192.654 359.483 199.367 356.204 206.159C355.101 208.429 353.454 209.036 351.423 208.237C349.296 207.39 346.737 206.543 347.297 202.627Z" fill="#110D06"/>
<path d="M439.104 294.385C435.873 294.305 435.442 291.572 434.674 289.478C433.938 287.416 435.25 285.834 437.089 285.035C444.109 281.966 451.209 279.057 458.246 276.005C461.828 274.454 462.915 276.868 464.035 279.377C465.01 281.599 464.946 283.596 462.499 284.699C455.511 287.848 448.475 290.917 441.438 293.969C440.735 294.273 439.887 294.257 439.12 294.369L439.104 294.385Z" fill="#110D06"/>
<path d="M223.682 182.489C225.985 182.441 227.392 183.639 228.256 185.669C230.942 191.887 233.693 198.072 236.299 204.321C237.547 207.31 236.811 209.899 233.773 211.354C230.574 212.872 228.543 210.874 227.392 208.349C224.482 201.956 221.731 195.467 219.172 188.93C217.733 185.286 219.876 182.489 223.682 182.505V182.489Z" fill="#110D06"/>
<path d="M412.062 384.432C410.479 381.14 408.847 377.879 407.328 374.555C406.864 373.548 407.136 372.477 407.728 371.518C413.245 362.664 414.141 353.298 410.862 343.452C410.99 343.436 411.23 343.356 411.246 343.388C414.029 349.67 417.931 355.631 418.266 362.712C418.474 367.219 417.339 371.662 415.1 375.642C413.549 378.423 411.694 381.012 412.078 384.416L412.062 384.432Z" fill="#F2AB3C"/>
<path d="M174.442 392.296C175.546 392.903 175.002 393.942 175.002 394.773C175.05 405.753 175.066 416.718 175.05 427.698C175.05 428.705 175.418 429.824 174.506 430.687C173.835 430.479 173.883 429.903 173.883 429.392C173.867 417.469 173.851 405.546 173.851 393.606C173.851 393.079 173.835 392.552 174.442 392.296Z" fill="#F2AB3C"/>
<path d="M406.768 336.324C401.571 330.65 395.046 327.277 387.658 325.471C394.407 324.384 404.194 329.947 406.768 336.324Z" fill="#F2AB3C"/>
<path d="M409.934 341.182C408.703 340.767 408.415 339.808 408.511 338.641C409.854 339.009 410.158 339.936 409.934 341.182Z" fill="#F2AB3C"/>
<path d="M188.883 332.488C188.563 333.319 188.131 333.415 187.571 332.68C187.891 331.833 188.323 331.769 188.883 332.488Z" fill="#F2AB3C"/>
<path d="M177.32 480.01C177.879 479.562 178.167 479.754 178.247 480.409C178.167 481.097 177.72 481.161 177.256 480.873C177.144 480.809 177.288 480.313 177.32 480.01Z" fill="#F2AB3C"/>
<path d="M293.134 488.944C293.725 488.545 294.141 488.576 294.269 489.376C294.301 490.015 293.869 489.967 293.501 489.823C293.15 489.679 292.798 489.424 293.134 488.944Z" fill="#F2AB3C"/>
<path d="M328.236 245.094C333.609 245.733 336.568 249.857 339.654 253.453C344.132 258.663 345.811 265.136 346.258 271.881C347.298 287.544 342.804 302.105 337.223 316.425C335.88 319.877 334.201 323.218 332.682 326.606C330.539 331.353 332.49 334.278 337.815 334.486C340.677 334.598 343.62 333.815 346.402 335.061C345.475 337.634 347.362 337.778 349.057 338.194C355.598 339.808 362.218 338.402 368.791 338.482C375.347 338.561 381.968 338.545 388.572 338.242C390.603 338.146 392.682 339.68 394.697 338.098C401.893 341.742 405.588 351.156 403.221 359.595C402.229 363.095 400.758 366.34 398.391 369.121C396.136 371.774 396.184 374.379 398.087 377.112C399.767 379.526 401.286 382.019 402.261 384.8C405.22 393.143 402.581 399.84 396.232 405.53C391.099 410.133 391.099 410.628 395.353 416.27C402.805 426.164 400.278 438.694 389.564 445.087C384.686 447.996 384.207 449.355 387.021 454.325C389.708 459.088 390.603 464.075 389.356 469.317C387.693 476.318 382.879 479.994 375.923 481.049C355.006 484.213 334.025 484.661 312.996 482.599C292.974 480.633 274.136 475.151 257.073 464.139C251.252 460.383 244.568 460.766 238.075 461.134C234.349 461.342 233.389 460.175 233.389 456.531C233.485 420.458 233.437 384.368 233.357 348.295C233.357 343.34 236.78 345.194 239.21 344.939C238.603 348.487 239.594 349.542 243.48 349.254C258.448 348.167 271.817 342.525 283.779 333.847C299.995 322.083 308.726 305.029 315.219 286.681C318.577 277.187 321.184 267.502 322.687 257.496C323.199 254.108 324.734 250.544 328.172 248.626C330.459 247.347 328.492 246.26 328.22 245.094H328.236Z" fill="#F2AB3C"/>
<path d="M209.225 339.808C213.383 338.178 217.813 338.465 222.131 338.05C224.321 337.842 224.737 339.313 224.705 341.151C223.922 383.265 224.513 425.38 224.401 467.479C224.401 470.468 223.41 471.427 220.467 471.379C211.16 471.235 201.853 471.331 192.562 471.251C191.091 471.251 189.699 471.491 188.276 471.683C187.205 471.811 185.302 472.913 184.918 470.516C187.493 470.548 188.5 469.941 188.468 466.728C188.132 428.833 188.708 390.953 187.653 353.058C187.461 346.297 189.332 345.21 196.032 344.907C204.364 344.523 212.632 343.356 220.819 341.822C221.763 341.646 222.818 341.502 222.69 340.256C222.546 338.705 221.331 339.488 220.515 339.456C216.741 339.297 213.031 341.422 209.225 339.792V339.808Z" fill="#F2AB3C"/>
<path d="M328.233 245.093C328.505 246.276 330.488 247.363 328.185 248.626C324.763 250.528 323.212 254.108 322.7 257.496C321.197 267.501 318.59 277.187 315.232 286.681C308.74 305.045 300.008 322.083 283.793 333.846C271.831 342.525 258.478 348.151 243.494 349.254C239.608 349.541 238.616 348.487 239.224 344.938C268.824 338.785 290.461 322.578 303.398 294.912C310.195 280.352 314.113 265.008 317.583 249.457C319.15 242.392 322.316 241.162 328.233 245.077V245.093Z" fill="#FEFEFE"/>
<path d="M209.224 339.808C213.046 341.439 216.74 339.297 220.514 339.473C221.33 339.505 222.545 338.721 222.689 340.272C222.801 341.518 221.761 341.662 220.818 341.838C212.614 343.372 204.363 344.539 196.031 344.923C189.346 345.226 187.475 346.329 187.651 353.074C188.707 390.953 188.131 428.849 188.467 466.744C188.499 469.957 187.491 470.564 184.917 470.532L184.517 470.564L184.293 470.244C184.965 469.301 184.773 468.215 184.773 467.16C184.757 434.635 184.741 402.125 184.645 369.6C184.645 368.673 185.572 367.171 183.733 366.723C183.733 362.136 183.717 357.533 183.701 352.946C185.269 351.987 185.285 350.98 183.781 349.941C183.493 347.736 183.238 345.514 183.893 343.34C185.924 342.605 188.387 343.66 190.162 341.838C191.761 341.694 193.376 341.566 194.975 341.423C197.726 342.573 200.605 342.557 203.291 341.534C204.459 341.087 206.697 342.829 206.873 340.048L209.24 339.808H209.224Z" fill="#FEFEFE"/>
<path d="M183.717 366.739C185.572 367.171 184.629 368.689 184.629 369.616C184.725 402.141 184.741 434.651 184.757 467.176C184.757 468.215 184.949 469.317 184.277 470.26C183.03 469.573 183.541 468.374 183.541 467.415C183.461 434.507 183.413 401.582 183.397 368.673C183.397 368.034 183.605 367.395 183.717 366.755V366.739Z" fill="#F2AB3C"/>
<path d="M394.71 338.114C392.695 339.68 390.616 338.162 388.585 338.258C381.996 338.562 375.376 338.593 368.803 338.498C362.247 338.418 355.626 339.824 349.069 338.21C347.374 337.794 345.487 337.651 346.415 335.077C358.776 334.182 371.17 334.79 383.531 334.758C384.347 335.365 385.179 335.365 386.01 334.79C389.304 334.869 392.247 335.828 394.694 338.114H394.71Z" fill="#FEFEFE"/>
<path d="M206.842 340.048C206.666 342.813 204.443 341.071 203.26 341.534C200.573 342.573 197.695 342.573 194.944 341.422C198.83 340.208 202.78 339.664 206.842 340.048Z" fill="#F2AB3C"/>
<path d="M190.145 341.838C188.37 343.66 185.907 342.605 183.876 343.34C185.507 340.927 187.906 341.694 190.145 341.838Z" fill="#F2AB3C"/>
<path d="M183.765 349.957C185.285 350.996 185.269 352.003 183.685 352.962C183.11 351.939 183.158 350.948 183.765 349.957Z" fill="#F2AB3C"/>
<path d="M386.013 334.806C385.181 335.365 384.35 335.381 383.534 334.774C384.382 333.847 385.197 333.863 386.013 334.806Z" fill="#F2AB3C"/>
<path d="M127.745 278.642C130.432 278.961 132.687 280.464 135.101 281.503C139.963 283.596 144.792 285.77 149.606 287.944C152.132 289.095 152.724 290.917 151.557 293.474C150.501 295.759 149.238 297.502 146.423 296.271C139.515 293.218 132.623 290.133 125.746 287.001C123.907 286.154 122.74 284.779 123.555 282.558C124.291 280.56 124.819 278.338 127.745 278.658V278.642Z" fill="#110D06"/>
</g>
<defs>
<clipPath id="clip0_1356_6016">
<rect width="504.929" height="345.468" fill="white" transform="translate(0.335938 381.925) rotate(-46.235)"/>
</clipPath>
<clipPath id="clip1_1356_6016">
<rect width="341.31" height="370.467" fill="white" transform="translate(123.301 126.82)"/>
</clipPath>
</defs>
</svg>
